<?xml version="1.0" encoding="utf-8"?>
<svg xmlns="http://www.w3.org/2000/svg" xmlns:xlink="http://www.w3.org/1999/xlink" style="margin: auto; background: none; display: block; shape-rendering: auto;" width="108px" height="108px" viewBox="0 0 100 100" preserveAspectRatio="xMidYMid">
<g transform="translate(50 50)">
<g>
<animateTransform attributeName="transform" type="rotate" values="0;45" keyTimes="0;1" dur="0.5586592178770949s" repeatCount="indefinite"></animateTransform><path d="M29.795133830879163 -3.5 L50.795133830879166 -3.5 L50.795133830879166 3.5 L29.795133830879163 3.5 A30 30 0 0 1 23.54321491232829 18.593467444022455 L23.54321491232829 18.593467444022455 L38.392457317245785 33.442709848939955 L33.442709848939955 38.392457317245785 L18.59346744402246 23.54321491232829 A30 30 0 0 1 3.5000000000000013 29.795133830879163 L3.5000000000000013 29.795133830879163 L3.5000000000000027 50.795133830879166 L-3.499999999999996 50.795133830879166 L-3.4999999999999973 29.795133830879163 A30 30 0 0 1 -18.593467444022455 23.54321491232829 L-18.593467444022455 23.54321491232829 L-33.442709848939955 38.392457317245785 L-38.392457317245785 33.442709848939955 L-23.543214912328285 18.59346744402246 A30 30 0 0 1 -29.795133830879163 3.500000000000003 L-29.795133830879163 3.500000000000003 L-50.795133830879166 3.5000000000000058 L-50.795133830879166 -3.4999999999999933 L-29.795133830879166 -3.499999999999996 A30 30 0 0 1 -23.543214912328292 -18.593467444022455 L-23.543214912328292 -18.593467444022455 L-38.39245731724579 -33.442709848939955 L-33.442709848939955 -38.392457317245785 L-18.59346744402246 -23.543214912328285 A30 30 0 0 1 -3.500000000000005 -29.795133830879163 L-3.500000000000005 -29.795133830879163 L-3.500000000000009 -50.795133830879166 L3.49999999999999 -50.795133830879166 L3.499999999999994 -29.795133830879166 A30 30 0 0 1 18.59346744402245 -23.543214912328292 L18.59346744402245 -23.543214912328292 L33.44270984893995 -38.39245731724579 L38.39245731724578 -33.442709848939955 L23.54321491232828 -18.59346744402246 A30 30 0 0 1 29.795133830879163 -3.5000000000000067 M0 -51A51 51 0 1 0 0 51 A51 51 0 1 0 0 -51" fill="#645be1"></path></g></g>
<!-- [ldio] generated by https://loading.io/ --></svg>